<svg width="1233" height="148" viewBox="0 0 1233 148" fill="none" xmlns="http://www.w3.org/2000/svg">
<g clip-path="url(#clip0_530_462)">
<path d="M70.0137 50.0561H47.6435V2.20561H0V145.794H47.6435V93.1589H70.0137V145.794H117.657V2.20561H70.0137V50.0561Z" fill="#212121"/>
<path d="M128.004 2.20561V145.794H219.457V105.832H175.647V90.2056H213.762V56.8972H175.647V42.1682H219.457V2.20561H128.004Z" fill="#212121"/>
<path d="M262.822 2.20561L224.707 145.794H273.467L277.487 127.589H311.582L315.639 145.794H364.585L326.433 2.20561H262.822ZM284.783 94.243L294.423 50.3551L304.175 94.243H284.783Z" fill="#212121"/>
<path d="M477.999 76.6729C483.135 69.4953 485.704 60.5608 485.704 49.8692C485.704 39.1776 483.21 30.8411 478.297 23.7383C473.346 16.6355 466.646 11.2523 458.234 7.62617C449.785 4 440.331 2.20561 429.834 2.20561H370.094V145.794H417.737V97.757H419.673L440.294 145.794H491.622L465.679 88.4486C470.517 85.3458 474.649 81.4206 478.036 76.6729H477.999ZM425.963 42.5047C429.276 42.5047 431.993 43.2897 434.226 44.8224C436.423 46.3551 437.539 48.6729 437.539 51.7383C437.539 54.8037 436.46 57.3084 434.338 58.8411C432.216 60.3738 429.425 61.1589 426 61.1589H417.737V42.5794H426L425.963 42.5047Z" fill="#212121"/>
<path d="M491.324 2.20561V45.271H518.831V145.794H566.474V45.271H593.981V2.20561H491.324Z" fill="#212121"/>
<path d="M739.183 2.20561L726.491 74.3925L712.979 2.20561H677.768L663.847 74.8037L651.564 2.20561H599.863L632.507 145.794H684.356L694.89 90.2804L705.275 145.794H757.124L790.475 2.20561H739.183Z" fill="#212121"/>
<path d="M897.82 9.19626C886.096 3.06542 873.18 0 859.147 0C845.115 0 832.273 3.06542 820.66 9.19626C809.047 15.3271 799.891 24 793.153 35.2523C786.416 46.4673 783.066 59.3271 783.066 73.8318C783.066 88.3364 786.528 102.093 793.526 113.308C800.486 124.523 809.791 133.121 821.405 139.065C833.018 145.009 845.599 148 859.147 148C872.696 148 885.686 145.009 897.374 138.991C909.024 132.972 918.367 124.374 925.327 113.121C932.287 101.907 935.786 88.785 935.786 73.8318C935.786 58.8785 932.399 46.5047 925.625 35.2523C918.85 24.0374 909.582 15.3271 897.858 9.19626H897.82ZM882.485 88.3738C880.103 92.5607 876.865 95.8131 872.77 98.1308C868.676 100.449 864.172 101.645 859.296 101.645C854.42 101.645 849.953 100.523 845.896 98.243C841.876 95.9626 838.675 92.7103 836.256 88.486C833.874 84.2617 832.683 79.3645 832.683 73.8318C832.683 68.2991 833.874 63.8505 836.256 59.6636C838.638 55.4766 841.839 52.2617 845.896 49.9813C849.916 47.7009 854.383 46.5794 859.296 46.5794C864.209 46.5794 868.639 47.7009 872.659 49.9813C876.678 52.2617 879.917 55.4766 882.373 59.6636C884.83 63.8505 886.058 68.5607 886.058 73.8318C886.058 79.1028 884.867 84.1869 882.485 88.3738Z" fill="#212121"/>
<path d="M1056.2 9.19626C1044.47 3.06542 1031.56 0 1017.53 0C1003.49 0 990.652 3.06542 979.039 9.19626C967.426 15.3271 958.269 24 951.532 35.2523C944.795 46.4673 941.445 59.3271 941.445 73.8318C941.445 88.3364 944.944 102.093 951.905 113.308C958.865 124.523 968.17 133.121 979.746 139.065C991.359 145.009 1003.94 148 1017.49 148C1031.04 148 1044.03 145.009 1055.72 138.991C1067.37 132.972 1076.71 124.374 1083.67 113.121C1090.63 101.907 1094.13 88.785 1094.13 73.8318C1094.13 58.8785 1090.74 46.5047 1083.97 35.2523C1077.19 24.0374 1067.92 15.3271 1056.2 9.19626ZM1040.9 88.3738C1038.52 92.5607 1035.28 95.8131 1031.19 98.1308C1027.09 100.449 1022.59 101.645 1017.71 101.645C1012.84 101.645 1008.37 100.523 1004.31 98.243C1000.29 95.9626 997.092 92.7103 994.672 88.486C992.29 84.2617 991.099 79.3645 991.099 73.8318C991.099 68.2991 992.29 63.8505 994.672 59.6636C997.054 55.4766 1000.26 52.2617 1004.31 49.9813C1008.33 47.7009 1012.8 46.5794 1017.71 46.5794C1022.63 46.5794 1027.05 47.7009 1031.07 49.9813C1035.09 52.2617 1038.33 55.4766 1040.79 59.6636C1043.25 63.8505 1044.44 68.5607 1044.44 73.8318C1044.44 79.1028 1043.25 84.1869 1040.86 88.3738H1040.9Z" fill="#212121"/>
<path d="M1222.61 35.514C1215.69 24.7103 1206.2 16.4486 1194.1 10.7664C1182.01 5.04673 1168.27 2.20561 1152.86 2.20561H1100.45V145.794L1152.86 145.607C1167.9 145.607 1181.45 142.841 1193.54 137.308C1205.64 131.776 1215.24 123.626 1222.32 112.822C1229.39 102.019 1232.96 89.0094 1232.96 73.7944C1232.96 58.5794 1229.5 46.3178 1222.61 35.514ZM1180.11 88.8224C1177.46 93.1963 1173.74 96.5608 1168.94 98.9533C1164.1 101.346 1158.59 102.542 1152.34 102.542H1148.13V45.3084H1152.34C1158.56 45.3084 1164.1 46.5047 1168.94 48.8972C1173.78 51.2897 1177.5 54.6542 1180.11 59.028C1182.75 63.4019 1184.05 68.3365 1184.05 73.8318C1184.05 79.3271 1182.75 84.486 1180.11 88.8224Z" fill="#212121"/>
</g>
<defs>
<clipPath id="clip0_530_462">
<rect width="1233" height="148" fill="white"/>
</clipPath>
</defs>
</svg>
